<?xml version="1.0" standalone="no"?><!DOCTYPE svg PUBLIC "-//W3C//DTD SVG 1.1//EN" "http://www.w3.org/Graphics/SVG/1.1/DTD/svg11.dtd"><svg t="1621348629779" class="icon" viewBox="0 0 1024 1024" version="1.1" xmlns="http://www.w3.org/2000/svg" p-id="8022" xmlns:xlink="http://www.w3.org/1999/xlink" width="200" height="200"><defs><style type="text/css"></style></defs><path d="M512 0C229.205333 0 0 229.248 0 512s229.205333 512 512 512c282.752 0 512-229.248 512-512S794.752 0 512 0z m-0.085333 596.949333a87.552 87.552 0 1 1 0-175.146666 87.552 87.552 0 0 1 0 175.146666z m213.12 207.061334l-85.845334-119.082667a216.917333 216.917333 0 1 0-255.232 0.512l-85.930666 119.168A363.776 363.776 0 0 1 511.104 145.92a363.776 363.776 0 0 1 363.776 363.776 363.136 363.136 0 0 1-149.845333 294.314667z" p-id="8023" fill="#000000"></path></svg>