<svg id="图层_1" data-name="图层 1" xmlns="http://www.w3.org/2000/svg" viewBox="0 0 70.7 56.89"><defs><style>.cls-1{fill:#000;}</style></defs><g id="B_W_Logo_RGB" data-name="B&amp;W Logo RGB"><path class="cls-1" d="M253.36,154.3a4.75,4.75,0,0,0-4-1.66,15.35,15.35,0,0,0-4.42.86A64.57,64.57,0,0,0,233.4,159a26.74,26.74,0,0,0-41,22.76,27,27,0,0,0,1.35,8.44,85.69,85.69,0,0,0-7.39,8.82,20.93,20.93,0,0,0-2.43,4.27,6.76,6.76,0,0,0-.48,2.13,3.79,3.79,0,0,0,.74,2.49,4.49,4.49,0,0,0,3.28,1.63,11.13,11.13,0,0,0,3.55-.38,44.25,44.25,0,0,0,9-3.67A168.89,168.89,0,0,0,225,189.09a169.07,169.07,0,0,0,22.06-20,44.74,44.74,0,0,0,5.82-7.83,11.43,11.43,0,0,0,1.27-3.35,4.52,4.52,0,0,0-.75-3.59m-4.65,4.7a40.09,40.09,0,0,1-5.19,6.94,165.35,165.35,0,0,1-21.42,19.43A164.49,164.49,0,0,1,198,201.26a40.64,40.64,0,0,1-8,3.29,8.58,8.58,0,0,1-1.54.26,17.8,17.8,0,0,1,1.83-3.12,73.51,73.51,0,0,1,5.63-6.84,25.83,25.83,0,0,0,1.79,2.78,167.06,167.06,0,0,0,22.39-14.91A168.63,168.63,0,0,0,240,164.84a26.73,26.73,0,0,0-2.56-2.76,54.68,54.68,0,0,1,9-4.1,11.3,11.3,0,0,1,3-.63,7.7,7.7,0,0,1-.71,1.65" transform="translate(-183.49 -152.64)"/><path class="cls-1" d="M226.88,191.6a193.53,193.53,0,0,1-20.22,13.83,26.51,26.51,0,0,0,12.54,3.13,26.87,26.87,0,0,0,26-33,193.73,193.73,0,0,1-18.36,16" transform="translate(-183.49 -152.64)"/></g></svg>
