<?xml version="1.0" standalone="no"?><!DOCTYPE svg PUBLIC "-//W3C//DTD SVG 1.1//EN" "http://www.w3.org/Graphics/SVG/1.1/DTD/svg11.dtd"><svg t="1621348676208" class="icon" viewBox="0 0 1024 1024" version="1.1" xmlns="http://www.w3.org/2000/svg" p-id="9550" xmlns:xlink="http://www.w3.org/1999/xlink" width="200" height="200"><defs><style type="text/css"></style></defs><path d="M511.998933 1023.997867C229.930188 1024.765865 0.725332 796.627674 0 514.601595V511.998933C0 228.266191 228.308858 0 511.998933 0s511.998933 228.266191 511.998934 511.998933c0 283.690076-228.308858 511.998933-511.998934 511.998934z m0-202.708911l38.39992-38.357254-38.39992-147.199693-38.39992 147.199693 38.39992 38.357254z m-49.066564-2.133329L443.732409 891.731476l44.799907-44.88524-25.599947-27.690609z m98.133129 0l-25.599947 25.642613 44.799907 44.842573-19.19996-70.485186z m36.266591 132.351724L511.998933 866.131529l-85.333155 85.375822c27.733276 4.266658 55.466551 8.490649 85.333155 8.490649s57.59988-2.133329 85.333156-8.490649zM511.998933 63.999867C264.575449 63.999867 63.999867 264.575449 63.999867 511.998933a445.737738 445.737738 0 0 0 300.84204 422.356454l95.9998-356.265925a83.071827 83.071827 0 0 1-34.175929-68.266524c0-46.975902 38.39992-85.375822 85.333155-85.375822s85.333156 38.39992 85.333156 85.375822c0 27.690609-12.84264 51.199893-34.175929 68.266524l95.9998 356.265925A445.652405 445.652405 0 0 0 959.998 511.998933c0-247.423485-200.575582-447.999067-447.999067-447.999066z m292.266058 669.865271a33.023931 33.023931 0 0 1-44.75724 6.399986 29.013273 29.013273 0 0 1-6.399987-42.709244s57.59988-76.757173 57.59988-185.599613-57.59988-185.599613-57.59988-185.599614a29.013273 29.013273 0 0 1 6.442654-42.709244 33.023931 33.023931 0 0 1 44.75724 6.399987c4.266658 4.309324 70.399853 91.733142 70.399853 221.866204S808.488982 729.59848 804.264991 733.865138z m-155.775675-83.199827c-12.799973-12.799973-10.623978-36.266591 2.175995-49.066564 0 0 31.999933-34.090596 31.999933-89.599814s-31.999933-87.509151-31.999933-89.599813c-12.799973-12.84264-12.799973-34.175929-2.175995-49.066564a29.439939 29.439939 0 0 1 44.842573-2.175996C695.507884 373.332556 746.665111 426.665778 746.665111 511.998933s-51.157227 138.666378-53.333222 140.842374c-12.84264 12.757307-31.999933 10.666644-44.842573-2.175996z m-272.980765 0c-12.84264 12.84264-31.999933 14.933302-44.842573 2.175996C328.489982 648.489316 277.332756 597.332089 277.332756 511.998933s51.157227-136.490382 53.333222-140.842373c12.84264-12.757307 34.175929-12.757307 44.842573 2.175996 12.799973 12.799973 10.623978 36.266591-2.175995 49.066564 0 2.090662-31.999933 34.090596-31.999934 89.599813s31.999933 89.599813 31.999934 89.599814c12.799973 12.799973 14.975969 34.090596 2.175995 49.066564z m-111.018435 89.64248a33.109264 33.109264 0 0 1-44.799907-6.399987C215.508884 729.59848 149.333022 642.131996 149.333022 511.998933s66.175862-217.599547 70.357187-221.866204a33.023931 33.023931 0 0 1 44.799907-6.399987 29.013273 29.013273 0 0 1 6.442653 42.666578S213.332889 403.156493 213.332889 511.998933s57.59988 185.599613 57.59988 185.599614c10.666644 12.799973 6.399987 31.999933-6.442653 42.709244z" fill="#000000" p-id="9551"></path></svg>