<?xml version="1.0" standalone="no"?><!DOCTYPE svg PUBLIC "-//W3C//DTD SVG 1.1//EN" "http://www.w3.org/Graphics/SVG/1.1/DTD/svg11.dtd"><svg t="1621348746471" class="icon" viewBox="0 0 1024 1024" version="1.1" xmlns="http://www.w3.org/2000/svg" p-id="12278" xmlns:xlink="http://www.w3.org/1999/xlink" width="200" height="200"><defs><style type="text/css"></style></defs><path d="M512 0C229.205333 0 0 229.205333 0 512s229.205333 512 512 512 512-229.205333 512-512S794.794667 0 512 0z m152.064 512A152.064 152.064 0 1 0 512 664.064V750.933333a238.933333 238.933333 0 1 1 238.933333-238.933333h-86.869333zM810.666667 512a298.666667 298.666667 0 1 0-298.666667 298.666667v99.541333a398.208 398.208 0 1 1 0-796.416A398.208 398.208 0 0 1 910.208 512H810.666667z" p-id="12279" fill="#000000"></path></svg>