<?xml version="1.0" encoding="utf-8"?>
<!-- Generator: Adobe Illustrator 25.2.3, SVG Export Plug-In . SVG Version: 6.00 Build 0)  -->
<svg version="1.1" id="图层_1" xmlns="http://www.w3.org/2000/svg" xmlns:xlink="http://www.w3.org/1999/xlink" x="0px" y="0px"
	 viewBox="0 0 884.4 844.3" style="enable-background:new 0 0 884.4 844.3;" xml:space="preserve">
<path d="M344.7,125.6c0-134.7-83.2-125.4-83.2-125.4H91.2C-6.5,0.2,0.1,87.3,0.1,87.3v231c0,0-0.1,305-0.1,398.7
	s60.8,89.8,60.8,89.8h64.7c10.6,0,70.6,6.6,68.7-38.3c-1.6-36.9-31.7-40.9-31.7-40.9s6.6-0.1-47.5,0c-46.8,0.1-42.2-47.5-42.2-47.5
	V121.6c0-52.8,52.8-47.5,52.8-47.5h88.5c63.4,0,55.5,62.1,55.5,62.1v566.4c0,70-40.9,104.3-40.9,104.3h37
	c83.2,0,79.2-76.6,79.2-76.6S344.7,260.2,344.7,125.6L344.7,125.6z M884.3,276.5H532.2c-30.8,0-29-36.1-29-36.1V116.3
	c0-47.5,53.7-40.5,53.7-40.5h253.5c79.2,0,73.9-75.8,73.9-75.8H500.5C418.9-1,423,70.5,423,70.5v773.8c65.1,0,80.1-54.7,80.1-54.7
	V367.1c0-28.2,28.2-23.8,28.2-23.8h184.8c41.3,0,35.2,18.5,35.2,18.5v482.3c51.9,2.6,75.7-52.8,75.7-52.8V342.5
	C886,342.5,884.3,276.5,884.3,276.5z"/>
</svg>
