<?xml version="1.0" encoding="utf-8"?>
<!-- Generator: Adobe Illustrator 25.2.3, SVG Export Plug-In . SVG Version: 6.00 Build 0)  -->
<svg version="1.1" id="Layer_1" xmlns="http://www.w3.org/2000/svg" xmlns:xlink="http://www.w3.org/1999/xlink" x="0px" y="0px"
	 viewBox="0 0 512 512" style="enable-background:new 0 0 512 512;" xml:space="preserve">
<path d="M365.3,27.1c-1.2-4-5.4-6.2-9.4-4.9C214.1,66,76,93.3,74.6,93.6c-4.1,0.8-6.7,4.7-5.9,8.8c0.7,3.6,3.8,6.1,7.4,6.1
	c0.5,0,1,0,1.5-0.1c1.4-0.3,140.3-27.8,282.8-71.9C364.3,35.2,366.5,31,365.3,27.1z"/>
<path d="M448.6,256.4c0,6.8,0,13.6-0.2,20.4c0,2.2-1,4.3-2.8,5.7l-24.8,20.1L272.3,423.5c-1.3,1-2.9,1.6-4.6,1.7
	c-14.4,0.3-29,0.5-43.4,0.5c-124.2,0-208.3-12.8-209.1-12.9c-3.2-0.5-5.8-3.1-6.3-6.3c-0.1-0.6-8.9-60.9-8.9-150s8.8-149.4,8.9-150
	c0.5-3.3,3-5.8,6.3-6.3c0.8-0.1,84.9-12.9,209.1-12.9c88.5,0,156.6,6.5,188.7,10.2c13,1.5,20.1,2.6,20.4,2.6
	c3.2,0.5,5.8,3.1,6.3,6.3C439.8,107,448.6,167.4,448.6,256.4L448.6,256.4z"/>
<path d="M439.7,106.4c0.1,0.6,8.9,60.9,8.9,150c0,6.8,0,13.6-0.2,20.4c0,2.2-1,4.3-2.8,5.7l-24.8,20.1c0.4-14.5,0.7-29.9,0.7-46.2
	c0-76.5-5.7-134.5-8.6-159c13,1.5,20.1,2.6,20.4,2.6C436.7,100.6,439.2,103.2,439.7,106.4L439.7,106.4z"/>
<path d="M512,383.4c0,70.9-57.6,128.6-128.4,128.6c-3.9,0-7.7-0.2-11.5-0.5c0,0,0,0,0,0c-65.4-5.9-116.9-61.1-116.9-128.1
	c0-67,51.5-122.3,116.9-128.1h0c3.8-0.3,7.6-0.5,11.5-0.5C454.4,254.7,512,312.4,512,383.4L512,383.4z"/>
<path d="M512,383.4c0,70.9-57.6,128.6-128.4,128.6c-3.9,0-7.7-0.2-11.5-0.5c65.4-5.9,116.9-61.1,116.9-128.1
	c0-67-51.5-122.3-116.9-128.1c3.8-0.3,7.6-0.5,11.5-0.5C454.4,254.7,512,312.4,512,383.4L512,383.4z"/>
<path d="M371.5,0C359.1,0,349,10.1,349,22.5s10.1,22.5,22.5,22.5S394,35,394,22.5C394,10.1,383.9,0,371.5,0z"/>
</svg>
